<svg xmlns="http://www.w3.org/2000/svg" xmlns:xlink="http://www.w3.org/1999/xlink" width="2000" zoomAndPan="magnify" viewBox="0 0 1500 1499.999933" height="2000" preserveAspectRatio="xMidYMid meet" version="1.0"><path fill="#8887e0" d="M 892.769531 704.703125 L 910.949219 704.703125 L 940.035156 708.339844 L 978.210938 717.429688 L 1012.75 730.15625 L 1049.105469 750.152344 L 1072.738281 768.328125 L 1096.371094 788.328125 L 1110.914062 802.871094 L 1134.546875 833.773438 L 1149.089844 857.40625 L 1163.632812 886.492188 L 1179.992188 935.574219 L 1185.445312 966.476562 L 1187.265625 988.292969 L 1187.265625 1037.375 L 1183.628906 1068.277344 L 1174.539062 1108.269531 L 1161.8125 1144.628906 L 1141.816406 1182.804688 L 1123.640625 1208.253906 L 1103.640625 1230.070312 L 1085.464844 1248.246094 L 1054.558594 1270.0625 L 1025.472656 1286.421875 L 994.570312 1299.148438 L 956.394531 1310.054688 L 910.949219 1317.324219 L 331.050781 1317.324219 L 331.050781 1071.914062 L 349.230469 1044.644531 L 369.226562 1019.195312 L 391.039062 995.5625 L 418.308594 968.296875 L 432.851562 955.570312 L 436.488281 955.570312 L 436.488281 1210.070312 L 905.496094 1208.253906 L 936.398438 1202.800781 L 969.121094 1191.894531 L 996.386719 1177.351562 L 1018.203125 1160.988281 L 1036.382812 1142.8125 L 1054.558594 1115.542969 L 1067.285156 1086.457031 L 1076.375 1050.097656 L 1078.191406 1035.554688 L 1078.191406 986.472656 L 1070.921875 950.117188 L 1060.011719 921.03125 L 1043.652344 891.945312 L 1027.292969 871.949219 L 1007.296875 853.769531 L 980.027344 835.589844 L 954.578125 824.683594 L 923.675781 815.59375 L 903.675781 811.957031 L 880.046875 810.140625 L 781.878906 810.140625 L 790.96875 802.871094 L 810.964844 788.328125 L 836.417969 766.511719 L 872.773438 730.15625 Z M 892.769531 704.703125 " fill-opacity="1" fill-rule="nonzero"/><path fill="#a6ade0" d="M 331.050781 182.976562 L 794.605469 182.976562 L 794.605469 290.230469 L 469.207031 292.046875 L 487.386719 306.589844 L 500.113281 322.953125 L 509.199219 341.128906 L 512.835938 355.671875 L 512.835938 386.578125 L 505.566406 410.210938 L 494.660156 428.386719 L 476.480469 446.566406 L 452.847656 461.109375 L 441.941406 466.5625 L 438.304688 466.5625 L 438.304688 470.199219 L 456.484375 475.652344 L 480.117188 488.378906 L 498.292969 504.738281 L 511.019531 522.917969 L 518.289062 542.914062 L 520.109375 552.003906 L 520.109375 581.089844 L 512.835938 604.722656 L 500.113281 624.71875 L 480.117188 642.898438 L 456.484375 657.441406 L 418.308594 679.253906 L 376.496094 702.886719 L 345.59375 724.699219 L 331.050781 735.609375 L 331.050781 626.535156 L 360.136719 608.355469 L 396.492188 588.359375 L 405.582031 581.089844 L 411.035156 572 L 411.035156 552.003906 L 401.945312 541.097656 L 380.132812 530.1875 L 338.320312 517.464844 L 331.050781 515.644531 L 331.050781 428.386719 L 378.316406 412.027344 L 396.492188 401.121094 L 403.765625 392.03125 L 405.582031 388.394531 L 405.582031 372.035156 L 400.128906 362.945312 L 400.128906 359.308594 L 392.859375 355.671875 L 371.042969 342.949219 L 331.050781 322.953125 Z M 331.050781 182.976562 " fill-opacity="1" fill-rule="nonzero"/><path fill="#a7afde" d="M 854.59375 381.125 L 956.394531 381.125 L 945.488281 428.386719 L 925.492188 493.832031 L 909.132812 533.824219 L 887.316406 579.269531 L 865.503906 617.445312 L 840.050781 653.804688 L 823.691406 673.800781 L 807.332031 691.980469 L 781.878906 717.429688 L 756.429688 737.425781 L 725.527344 757.421875 L 687.351562 777.417969 L 632.816406 795.597656 L 563.738281 810.140625 L 523.742188 821.046875 L 487.386719 835.589844 L 445.574219 857.40625 L 412.855469 879.21875 L 389.222656 897.398438 L 369.226562 915.578125 L 354.683594 928.300781 L 338.320312 946.480469 L 331.050781 953.753906 L 331.050781 841.042969 L 356.5 813.777344 L 372.863281 797.414062 L 392.859375 781.054688 L 420.125 762.875 L 460.117188 741.0625 L 496.476562 726.519531 L 536.46875 713.792969 L 616.453125 691.980469 L 650.996094 679.253906 L 676.445312 666.527344 L 698.257812 651.984375 L 716.4375 637.441406 L 712.800781 630.171875 L 690.988281 599.269531 L 667.355469 557.457031 L 649.175781 519.28125 L 627.363281 462.925781 L 611 406.574219 L 607.367188 388.394531 L 700.078125 388.394531 L 716.4375 441.113281 L 734.617188 486.558594 L 749.160156 515.644531 L 770.972656 550.183594 L 778.246094 561.09375 L 785.515625 553.820312 L 807.332031 513.828125 L 823.691406 479.289062 L 841.871094 428.386719 Z M 854.59375 381.125 " fill-opacity="1" fill-rule="nonzero"/><path fill="#5d5fc9" d="M 867.320312 182.976562 L 898.222656 182.976562 L 936.398438 186.613281 L 963.667969 192.066406 L 994.570312 201.15625 L 1025.472656 213.878906 L 1050.925781 228.421875 L 1070.921875 242.964844 L 1092.734375 262.960938 L 1110.914062 282.957031 L 1129.09375 310.226562 L 1147.269531 348.402344 L 1159.996094 386.578125 L 1169.085938 441.113281 L 1169.085938 510.191406 L 1163.632812 548.367188 L 1156.359375 579.269531 L 1143.636719 615.628906 L 1123.640625 653.804688 L 1105.460938 679.253906 L 1094.554688 691.980469 L 1074.554688 679.253906 L 1049.105469 664.710938 L 1014.566406 650.167969 L 992.753906 641.078125 L 1018.203125 615.628906 L 1034.5625 590.179688 L 1045.472656 568.363281 L 1054.558594 541.097656 L 1060.011719 513.828125 L 1061.832031 497.46875 L 1061.832031 444.75 L 1054.558594 406.574219 L 1043.652344 379.304688 L 1030.929688 355.671875 L 1010.929688 333.859375 L 992.753906 319.316406 L 961.847656 304.773438 L 938.21875 297.5 L 905.496094 292.046875 L 867.320312 290.230469 Z M 867.320312 182.976562 " fill-opacity="1" fill-rule="nonzero"/><path fill="#a6addd" d="M 894.589844 953.753906 L 914.585938 953.753906 L 936.398438 962.839844 L 950.941406 977.382812 L 958.214844 991.925781 L 960.03125 999.199219 L 960.03125 1022.832031 L 952.757812 1041.011719 L 940.035156 1055.554688 L 925.492188 1064.640625 L 910.949219 1068.277344 L 896.40625 1068.277344 L 876.410156 1061.007812 L 861.867188 1048.28125 L 852.777344 1035.554688 L 849.140625 1024.648438 L 849.140625 997.382812 L 856.414062 981.019531 L 865.503906 968.296875 L 878.226562 959.207031 Z M 894.589844 953.753906 " fill-opacity="1" fill-rule="nonzero"/><path fill="#a5acdc" d="M 589.1875 953.753906 L 607.367188 953.753906 L 623.726562 959.207031 L 634.632812 966.476562 L 647.359375 981.019531 L 654.628906 997.382812 L 654.628906 1022.832031 L 649.175781 1039.191406 L 632.816406 1057.371094 L 614.636719 1066.460938 L 607.367188 1068.277344 L 591.003906 1068.277344 L 571.007812 1061.007812 L 554.648438 1046.464844 L 545.558594 1028.285156 L 543.742188 1022.832031 L 543.742188 999.199219 L 551.011719 981.019531 L 563.738281 966.476562 L 578.28125 957.386719 Z M 589.1875 953.753906 " fill-opacity="1" fill-rule="nonzero"/></svg>